Coordinates
version=1
nRows=54
nColumns=12
inDegrees=yes

Units are S.I. units (second, meters, Newtons, ...)
Angles are in degrees

endheader
time	SC_y	SC_z	SC_x	AC_y	AC_z	AC_x	GH_y	GH_z	GH_yy	EL_x	PS_y
       0.0              -48.27          32.01          30.25          67.83         0.6028         -1.822          79.93           50.5         -92.51          130.9          100.7
   0.03674              -48.26          32.01          30.25          67.83         0.6032         -1.823          79.92           50.5         -92.48          130.9          100.7
   0.07348              -48.26          32.01          30.25          67.83         0.6037         -1.825          79.92          50.51         -92.46          130.9          100.7
    0.1102              -48.25           32.0          30.24          67.82         0.6042         -1.826          79.91          50.51         -92.44          130.9          100.7
     0.147              -48.25           32.0          30.24          67.82         0.6047         -1.828           79.9          50.52         -92.41          130.8          100.7
    0.1837              -48.24           32.0          30.24          67.82         0.6053          -1.83          79.89          50.53         -92.38          130.8          100.7
    0.2204              -48.24           32.0          30.24          67.82         0.6058         -1.831          79.88          50.53         -92.35          130.8          100.6
    0.2572              -48.23           32.0          30.24          67.82         0.6065         -1.833          79.87          50.54         -92.32          130.8          100.6
    0.2939              -48.22           32.0          30.24          67.82         0.6072         -1.835          79.86          50.55         -92.29          130.8          100.6
    0.3307              -48.21          31.99          30.23          67.82         0.6079         -1.837          79.85          50.56         -92.25          130.8          100.6
    0.3674              -48.21          31.99          30.23          67.82         0.6087          -1.84          79.83          50.57         -92.21          130.7          100.6
    0.4041               -48.2          31.99          30.23          67.81         0.6095         -1.842          79.82          50.58         -92.17          130.7          100.5
    0.4409              -48.19          31.99          30.23          67.81         0.6104         -1.845          79.81          50.59         -92.12          130.7          100.5
    0.4776              -48.18          31.98          30.23          67.81         0.6114         -1.848          79.79           50.6         -92.08          130.6          100.5
    0.5143              -48.17          31.98          30.22          67.81         0.6125         -1.851          79.77          50.62         -92.02          130.6          100.4
    0.5511              -48.15          31.98          30.22           67.8         0.6137         -1.855          79.75          50.63         -91.96          130.6          100.4
    0.5878              -48.14          31.97          30.22           67.8         0.6149         -1.858          79.73          50.65          -91.9          130.5          100.4
    0.6246              -48.13          31.97          30.21           67.8         0.6163         -1.862          79.71          50.66         -91.83          130.5          100.3
    0.6613              -48.11          31.97          30.21           67.8         0.6178         -1.867          79.69          50.68         -91.76          130.5          100.3
     0.698              -48.09          31.96           30.2          67.79         0.6194         -1.872          79.66           50.7         -91.68          130.4          100.2
    0.7348              -48.07          31.96           30.2          67.79         0.6212         -1.877          79.63          50.72         -91.59          130.4          100.2
    0.7715              -48.05          31.95          30.19          67.78         0.6232         -1.883           79.6          50.75         -91.49          130.3          100.1
    0.8083              -48.03          31.94          30.19          67.78         0.6254          -1.89          79.56          50.78         -91.38          130.2          100.1
     0.845               -48.0          31.94          30.18          67.77         0.6278         -1.897          79.53          50.81         -91.26          130.2          100.0
    0.8817              -47.98          31.93          30.18          67.77         0.6305         -1.905          79.48          50.84         -91.13          130.1          99.92
    0.9185              -47.94          31.92          30.17          67.76         0.6335         -1.914          79.43          50.88         -90.98          130.0          99.83
    0.9552              -47.91          31.91          30.16          67.76         0.6369         -1.924          79.38          50.92         -90.81          129.9          99.73
     0.992              -47.87           31.9          30.15          67.75         0.6406         -1.935          79.32          50.97         -90.62          129.8          99.62
     1.029              -47.82          31.89          30.14          67.74         0.6449         -1.948          79.25          51.02         -90.41          129.7          99.49
     1.065              -47.77          31.88          30.12          67.73         0.6498         -1.962          79.17          51.08         -90.16          129.5          99.34
     1.102              -47.71          31.86          30.11          67.72         0.6553         -1.979          79.08          51.15         -89.89          129.4          99.18
     1.139              -47.65          31.84          30.09           67.7         0.6617         -1.998          78.98          51.23         -89.57          129.2          98.99
     1.176              -47.57          31.82          30.07          67.69          0.669          -2.02          78.86          51.32         -89.21          129.0          98.77
     1.212              -47.48           31.8          30.05          67.67         0.6776         -2.045          78.72          51.42         -88.78          128.7          98.52
     1.249              -47.37          31.77          30.02          67.65         0.6875         -2.075          78.56          51.55         -88.28          128.4          98.22
     1.286              -47.25          31.74          29.99          67.62         0.6993          -2.11          78.37          51.69          -87.7          128.1          97.88
     1.323               -47.1           31.7          29.96           67.6         0.7133         -2.152          78.14          51.86          -87.0          127.7          97.46
     1.359              -46.92          31.65          29.91          67.56         0.7301         -2.202          77.87          52.07         -86.17          127.2          96.96
     1.396              -46.71          31.59          29.86          67.52         0.7504         -2.263          77.54          52.32         -85.15          126.6          96.36
     1.433              -46.45          31.52          29.79          67.46         0.7751         -2.337          77.14          52.63         -83.92          125.9          95.63
      1.47              -46.13          31.44          29.71           67.4         0.8057         -2.428          76.65          53.01          -82.4          125.0          94.72
     1.506              -45.72          31.33          29.61          67.32         0.8439         -2.542          76.03          53.48          -80.5          123.9          93.59
     1.543              -45.21          31.19          29.49          67.22         0.8919         -2.685          75.25          54.08          -78.1          122.5          92.17
      1.58              -44.57          31.02          29.33          67.09          0.953         -2.868          74.26          54.83         -75.06          120.7          90.36
     1.617              -43.74           30.8          29.12          66.93          1.031         -3.101           73.0           55.8         -71.17          118.5          88.04
     1.653              -42.68          30.52          28.86          66.72          1.131           -3.4          71.37          57.04         -66.17          115.5          85.06
      1.69              -41.33          30.16          28.52          66.45           1.26         -3.783           69.3          58.63         -59.79          111.8          81.27
     1.727              -39.63           29.7          28.09          66.11          1.421         -4.264          66.69          60.62         -51.76          107.1          76.49
     1.763              -37.56          29.15          27.58          65.69          1.617          -4.85          63.51          63.05         -41.98          101.4          70.67
       1.8              -35.15          28.51          26.98          65.21          1.845         -5.529          59.83          65.87         -30.65          94.81          63.92
     1.837              -32.55          27.81          26.33           64.7          2.091         -6.265          55.84          68.92         -18.37          87.65          56.61
     1.874              -29.95          27.12          25.68          64.18          2.338           -7.0          51.85          71.97         -6.094          80.49          49.31
      1.91              -27.54          26.47          25.08           63.7          2.565          -7.68          48.17          74.79          5.242          73.88          42.56
     1.947              -25.47          25.92          24.56          63.29          2.762         -8.266          44.99          77.22          15.02          68.17          36.74
